<?xml version="1.0" encoding="utf-8"?>
<!-- Generator: Adobe Illustrator 24.0.0, SVG Export Plug-In . SVG Version: 6.00 Build 0)  -->
<svg version="1.1" id="Layer_1" xmlns="http://www.w3.org/2000/svg" xmlns:xlink="http://www.w3.org/1999/xlink" x="0px" y="0px"
	 viewBox="0 0 276 130" style="enable-background:new 0 0 276 130;" xml:space="preserve">
<style type="text/css">
	.st0{fill:url(#SVGID_1_);}
</style>
<linearGradient id="SVGID_1_" gradientUnits="userSpaceOnUse" x1="-35.9151" y1="63.754" x2="239.8686" y2="65.9517">
	<stop  offset="0.0364" style="stop-color:#B7D54D"/>
	<stop  offset="0.1415" style="stop-color:#B1D14D"/>
	<stop  offset="0.2827" style="stop-color:#A0C74D"/>
	<stop  offset="0.3855" style="stop-color:#8FBD4D"/>
	<stop  offset="0.795" style="stop-color:#4C7C44"/>
	<stop  offset="1" style="stop-color:#306040"/>
</linearGradient>
<path class="st0" d="M54.08,15.38L78.02,8.9l19.51-4.45L104.35,0l16.58,7.12l11.7,10.68l28.28,12.47l18.53,9.79l9.75,7.12
	l-9.75-0.89l20.48,24.04l19.51,22.26l18.53,8.9l17.55-0.89l11.7-5.34l1.95-13.36l-6.83-10.68l-12.68-5.34L236.99,65l-11.7-6.23
	l-8.78-4.45V41.85l6.83-8.01l11.7-2.67l5.85,10.68l-9.75-0.89l-6.83,0.89l6.83,16.03l17.55,1.78L264.3,65l9.75,10.68L276,89.04
	l-4.88,15.14l-16.58,12.47l-18.53,4.45H212.6l-30.23-3.56l-14.63-3.56l-23.41-0.89l2.93,9.79l3.9,2.67L136.54,130l-12.68-3.56
	l3.9-6.23l-0.98-11.58l-3.9-11.58l-0.98,5.34c0,0,0,3.56,0,8.01s0,4.45,0,4.45l-39.99-1.78l-13.65-4.45l-21.46-4.45L39,101.5
	l-5.85,3.56l-7.8,5.34l3.9,6.23l-6.83,3.56l-5.85,1.78l-3.9-7.12l-4.88,3.56L0,119.32v-5.34l15.6-8.9l6.83-8.9l7.8-4.45l-7.8-0.89
	l-9.75,3.56l-5.85-7.12l-3.9-12.47l-1.15-15.1l5.04-16.97l8.78-10.68c0,0,7.8-7.12,10.73-8.9s20.48-8.01,20.48-8.01L54.08,15.38z"/>
</svg>
