<?xml version="1.0" encoding="utf-8"?>
<!-- Generator: Adobe Illustrator 24.0.0, SVG Export Plug-In . SVG Version: 6.00 Build 0)  -->
<svg version="1.1" id="Layer_1" xmlns="http://www.w3.org/2000/svg" xmlns:xlink="http://www.w3.org/1999/xlink" x="0px" y="0px"
	 viewBox="0 0 445.32 120" style="enable-background:new 0 0 445.32 120;" xml:space="preserve">
<style type="text/css">
	.st0{fill:url(#SVGID_1_);}
	.st1{opacity:0.3;fill:url(#SVGID_2_);enable-background:new    ;}
	.st2{opacity:0.3;fill:url(#SVGID_3_);enable-background:new    ;}
	.st3{opacity:0.3;fill:url(#SVGID_4_);enable-background:new    ;}
	.st4{opacity:0.3;fill:url(#SVGID_5_);enable-background:new    ;}
	.st5{opacity:0.3;fill:url(#SVGID_6_);enable-background:new    ;}
	.st6{opacity:0.3;fill:url(#SVGID_7_);enable-background:new    ;}
	.st7{opacity:0.3;fill:url(#SVGID_8_);enable-background:new    ;}
	.st8{opacity:0.3;fill:url(#SVGID_9_);enable-background:new    ;}
	.st9{opacity:0.3;fill:url(#SVGID_10_);enable-background:new    ;}
	.st10{opacity:0.3;fill:url(#SVGID_11_);enable-background:new    ;}
	.st11{opacity:0.3;fill:url(#SVGID_12_);enable-background:new    ;}
	.st12{fill:#341400;}
	.st13{opacity:0.6;fill:#341400;enable-background:new    ;}
</style>
<g>
	<g>
		<g>
			
				<linearGradient id="SVGID_1_" gradientUnits="userSpaceOnUse" x1="-831.9039" y1="1222.9832" x2="-1004.0588" y2="657.1399" gradientTransform="matrix(-0.9978 -0.0539 0.061 -0.4887 -738.1079 479.5566)">
				<stop  offset="0" style="stop-color:#642400"/>
				<stop  offset="0.3477" style="stop-color:#7F3802"/>
				<stop  offset="0.702" style="stop-color:#441E0E"/>
				<stop  offset="1" style="stop-color:#441E0E"/>
			</linearGradient>
			<path class="st0" d="M2.01,63.64c0.34,0.58,0.64,1.29,0.95,1.94c0.48-0.02,0.97-0.08,1.47-0.15c1.89-0.75,3.76-1.59,5.56-2.28
				c4.66-1.79,9.04-3.76,13.46-5.98c0.38-0.2,0.77-0.39,1.15-0.58c11.06-6.29,23.12-11.6,35.5-15.33
				c29.57-8.93,60.44-13.41,91.36-17.2c-0.13,0.05-0.22,0.07-0.28,0.08c-0.02,0.02-0.06,0.05-0.14,0.11
				c-1.33,0.9-1.86,1.88-7.19,4.18c-7.55,3.26-15.27,6.41-22.9,9.57c-5.62,2.32-11.37,3.94-17.35,5.24
				c-11.66,2.53-23.06,5.32-33.66,9.81c-5.01,2.12-10.06,5.48-15.21,8.06c-3.22,1.62-6.73,3.18-9.42,5.4
				c-1.09,0.89-3.42,2.67-2.38,3.8c0.88,0.98,1.91,1.17,3.45,0.62c1.03-0.37,1.95-1.42,2.67-2.13c1.12-1.11,3.26-2.25,4.77-2.89
				c3.48-1.49,6.96-3.16,10.43-4.45c7.58-2.82,15.55-5.32,23.56-7.22c8.12-1.91,16.94-3.33,24.69-5.26
				c8.37-2.08,16.83-5.87,25.12-9.06c6.9-2.66,12.17-2.73,18.03-6.61c6.17-4.09,12.66-8.55,19.93-11.13
				c0.87-0.31,1.86-0.55,2.81-0.8c16.96-1.34,34.03-2.54,50.88-3.39c48.41-2.43,96.27,1.31,137.62,17.94
				c26.57,10.69,50.45,25.97,74.73,40.17c4.36-0.64,8.51-3.79,11.24-6.34c4.48-4.21,6.9-9.22,5.95-14.11
				c-9.73-5.22-19.89-9.69-30.29-14c-8.65-3.57-16.38-8.55-24.58-12.51c-7.72-3.72-16.24-7.07-22.9-12.03
				c-11.19-8.33-22.77-16.68-32.76-26.06c-7.13-6.7-14.27-13.48-21.62-20c-2.49-2.21-5.24-4.37-8.15-6.4
				c-0.33,0.12-0.64,0.24-0.93,0.38c-1.94,0.9-3.42,2.32-3.88,3.91c0.15,0.14,0.3,0.28,0.44,0.42c2.68,2.66,4.54,5.57,6.95,8.29
				c3.08,3.48,6.22,6.93,9.38,10.35c1.83,1.98,3.66,3.93,5.49,5.89c-2.5-0.18-4.95-0.26-6.96-0.47c-7.89-0.84-15.74-1.86-23.54-3.03
				c-0.01,0-0.02,0-0.03,0.01c-2.15,1.98-3.64,4.17-2.31,6.44c2.65,0.29,5.31,0.59,7.91,0.98c5.86,0.85,13.05,1.24,18.1,3.57
				c4.49,2.08,7.44,5.35,11.21,7.93c-32.02-6.39-64.67-10.64-98.13-8.01C209.2,3.9,175.3,9.31,141.85,13.56
				c-9,3.04-18.03,5.88-27.14,8.32c-12.72,3.41-25.89,6.69-38.76,9.33c-6.91,1.42-14.14,2.87-20.77,5.14
				c-6.81,2.34-13.36,5.73-19.56,9.19c-3.39,1.89-6.93,3.63-10.36,5.56c-4.88,2.75-9.58,5.33-14.72,7.74
				c-2.2,1.03-4.36,2.13-6.39,3.4C3.43,62.69,2.73,63.15,2.01,63.64z"/>
			
				<linearGradient id="SVGID_2_" gradientUnits="userSpaceOnUse" x1="-966.9656" y1="1263.889" x2="-1125.4421" y2="743.0038" gradientTransform="matrix(-0.9978 -0.0539 0.061 -0.4887 -738.1079 479.5566)">
				<stop  offset="0" style="stop-color:#642400"/>
				<stop  offset="0.3477" style="stop-color:#7F3802"/>
				<stop  offset="0.702" style="stop-color:#441E0E"/>
				<stop  offset="1" style="stop-color:#441E0E"/>
			</linearGradient>
			<path class="st1" d="M313.68-31.06c0.15,0.14,0.3,0.28,0.44,0.42c2.68,2.66,4.54,5.57,6.95,8.29c3.08,3.48,6.22,6.93,9.38,10.35
				c1.67,1.8,3.37,3.59,5.03,5.39c2.81,1.53,5.69,3.02,8.41,4.55c7.85,4.4,15.39,9.18,23.28,13.59
				c-7.58-8.4-18.83-14.11-28.06-20.96c-9.29-6.89-15.41-16.35-23.66-24.19C314.59-32.89,313.95-32.01,313.68-31.06z"/>
			
				<linearGradient id="SVGID_3_" gradientUnits="userSpaceOnUse" x1="-966.1034" y1="1272.6855" x2="-1136.0206" y2="714.1967" gradientTransform="matrix(-0.9978 -0.0539 0.061 -0.4887 -738.1079 479.5566)">
				<stop  offset="0" style="stop-color:#642400"/>
				<stop  offset="0.3477" style="stop-color:#7F3802"/>
				<stop  offset="0.702" style="stop-color:#441E0E"/>
				<stop  offset="1" style="stop-color:#441E0E"/>
			</linearGradient>
			<path class="st2" d="M303.08-3.17c2.65,0.29,5.31,0.59,7.91,0.98c5.86,0.85,13.05,1.24,18.1,3.57c3.91,1.8,6.65,4.5,9.76,6.87
				c4.64,2.03,9.05,4.31,13.38,6.53c6.62,3.4,13.46,6.64,20.38,9.69c12.03,5.29,24.12,10.69,36.07,16.16
				c-0.02,0-0.03-0.01-0.04-0.02c-2.79-2.08-6.37-4.02-9.7-5.88c-6.67-3.72-13.45-7.39-20.17-11.08
				c-6.27-3.45-12.36-7.11-18.14-11.05C354.67,8.52,348.8,4.33,342,1.29C330.52-3.85,317.12-6,303.86-7.99
				C302.64-6.46,302.11-4.83,303.08-3.17z"/>
			
				<linearGradient id="SVGID_4_" gradientUnits="userSpaceOnUse" x1="-862.6598" y1="1102.4865" x2="-973.7271" y2="737.4273" gradientTransform="matrix(-0.9978 -0.0539 0.061 -0.4887 -738.1079 479.5566)">
				<stop  offset="0" style="stop-color:#642400"/>
				<stop  offset="0.3477" style="stop-color:#7F3802"/>
				<stop  offset="0.702" style="stop-color:#441E0E"/>
				<stop  offset="1" style="stop-color:#441E0E"/>
			</linearGradient>
			<path class="st3" d="M2,63.61c0.34,0.58,0.64,1.29,0.95,1.94c0.48-0.02,0.97-0.08,1.47-0.15c1.89-0.75,3.76-1.59,5.56-2.28
				c4.66-1.79,9.04-3.76,13.46-5.98c0.38-0.2,0.77-0.39,1.15-0.58c11.06-6.29,23.12-11.6,35.5-15.33
				c29.57-8.93,60.44-13.41,91.36-17.2c-0.13,0.05-0.22,0.07-0.28,0.08c-0.02,0.02-0.06,0.05-0.14,0.11
				c-1.33,0.9-1.86,1.88-7.19,4.18c-7.55,3.26-15.27,6.41-22.9,9.57c-5.62,2.32-11.37,3.94-17.35,5.24
				c-11.66,2.53-23.06,5.32-33.66,9.81c-5.01,2.12-10.06,5.48-15.21,8.06c-3.22,1.62-6.73,3.18-9.42,5.4
				c-1.09,0.89-3.42,2.67-2.38,3.8c0.88,0.98,1.91,1.17,3.45,0.62c1.03-0.37,1.95-1.42,2.67-2.13c1.12-1.11,3.26-2.25,4.77-2.89
				c3.48-1.49,6.96-3.16,10.43-4.45c7.58-2.82,15.55-5.32,23.56-7.22c8.12-1.91,16.94-3.33,24.69-5.26
				c8.37-2.08,16.83-5.87,25.12-9.06c6.9-2.66,12.17-2.73,18.03-6.61c6.17-4.09,12.66-8.55,19.93-11.13
				c0.87-0.31,1.86-0.55,2.81-0.8c16.96-1.34,34.03-2.54,50.88-3.39c48.41-2.43,96.27,1.31,137.62,17.94
				c26.57,10.69,50.45,25.97,74.73,40.17c4.36-0.64,8.52-3.79,11.24-6.34c0.29-0.28,0.56-0.56,0.84-0.84
				c-0.17-0.14-0.34-0.28-0.51-0.42c-4.46-3.55-9.19-7-14.28-10.02c-6.76-4.01-13.8-7.88-20.88-11.56
				c-6.8-3.54-13.81-7.07-20.91-10.12c-13.79-5.93-29.77-9.24-45.15-12.71c-15.55-3.51-31.12-7.68-46.59-11.11
				c-16.47-3.65-33.69-6.36-50.93-6.91c-17.43-0.56-35.79,0.51-53.51,2.56c-8.78,1.02-17.8,2.38-26.57,3.91
				c-8.31,1.46-16.83,3.13-25.16,4.37c-6.11,0.91-12.51,0.64-18.78,0.63c-5.17,1.6-10.46,3.01-15.69,4.36
				c-12.88,3.31-25.9,6.69-38.76,9.33c-6.9,1.42-14.14,2.87-20.77,5.14c-6.81,2.34-13.36,5.73-19.56,9.19
				c-3.39,1.89-6.93,3.63-10.36,5.56c-4.88,2.75-9.58,5.33-14.72,7.74c-2.2,1.03-4.36,2.13-6.39,3.4C3.43,62.69,2.73,63.15,2,63.61z
				"/>
			
				<linearGradient id="SVGID_5_" gradientUnits="userSpaceOnUse" x1="-927.8279" y1="1627.337" x2="-927.8279" y2="905.8051" gradientTransform="matrix(-0.9978 -0.0539 0.061 -0.4887 -738.1079 479.5566)">
				<stop  offset="0" style="stop-color:#642400"/>
				<stop  offset="0.3477" style="stop-color:#7F3802"/>
				<stop  offset="0.702" style="stop-color:#441E0E"/>
				<stop  offset="1" style="stop-color:#441E0E"/>
			</linearGradient>
			<path class="st4" d="M43.2,70.55c0.82,0.75,1.79,0.87,3.18,0.37c1.03-0.37,1.95-1.42,2.67-2.13c1.12-1.11,3.26-2.25,4.77-2.89
				c3.48-1.49,6.96-3.16,10.43-4.45c7.58-2.82,15.55-5.32,23.56-7.22c8.12-1.91,16.94-3.33,24.69-5.26
				c8.37-2.08,16.83-5.87,25.12-9.06c6.9-2.66,12.17-2.73,18.03-6.61c6.17-4.09,12.66-8.55,19.93-11.13
				c0.87-0.31,1.86-0.55,2.81-0.8c16.96-1.34,34.03-2.54,50.88-3.39c48.41-2.43,96.27,1.31,137.62,17.94
				c26.57,10.69,50.45,25.97,74.73,40.17c1.59-0.23,3.15-0.8,4.63-1.55c-2.65-1.5-5.15-3.16-7.6-4.85
				c-5.78-3.97-12.23-7.44-18.51-10.85c-6.23-3.38-12.26-7.37-18.36-10.8c-6.49-3.64-13.56-6.93-20.68-9.89
				c-14.54-6.06-29.89-11.84-45.41-16.11c-15.66-4.32-32.56-7.2-49.36-8.66c-16.73-1.47-34.28-1.63-51.39-0.7
				c-16.44,0.9-33.43,3.06-50.01,4.28c-3.65,0.27-7.82,0.46-11.38,1.63c-3.98,1.31-7.38,3.81-10.73,5.81
				c-5.99,3.58-12.24,6.93-18.49,10.18c-6.18,3.2-12.7,6.16-19.39,8.37c-7.49,2.47-15.55,4.08-23.2,5.74
				c-14.78,3.2-29.34,7.7-43.09,13.61C53.39,64.56,48.13,67.51,43.2,70.55z"/>
			
				<linearGradient id="SVGID_6_" gradientUnits="userSpaceOnUse" x1="-761.162" y1="1743.7141" x2="-761.162" y2="758.0081" gradientTransform="matrix(-0.9978 -0.0539 0.061 -0.4887 -738.1079 479.5566)">
				<stop  offset="0" style="stop-color:#642400"/>
				<stop  offset="0.3477" style="stop-color:#7F3802"/>
				<stop  offset="0.702" style="stop-color:#441E0E"/>
				<stop  offset="1" style="stop-color:#441E0E"/>
			</linearGradient>
			<path class="st5" d="M21.2,54.7c-6.14,3.3-12.37,6.68-18.73,9.76c0.17,0.36,0.34,0.73,0.51,1.1c0.48-0.03,0.97-0.08,1.47-0.16
				c1.89-0.74,3.76-1.59,5.56-2.28c4.66-1.78,9.04-3.76,13.46-5.98c0.38-0.2,0.77-0.39,1.15-0.58c11.06-6.29,23.12-11.6,35.5-15.33
				c29.58-8.94,60.43-13.46,91.36-17.2c3.03-1.5,5.49-3.45,8.35-5.1c-7.26,1.53-14.58,3.28-21.79,4.55
				c-7.98,1.41-16.41,2.02-24.37,3.13c-8.33,1.15-16.89,2.82-25.3,4.48c-8.75,1.72-17.8,3.43-26.05,5.79"/>
			
				<linearGradient id="SVGID_7_" gradientUnits="userSpaceOnUse" x1="-1004.0336" y1="1215.4855" x2="-1004.0336" y2="999.6271" gradientTransform="matrix(-0.9978 -0.0539 0.061 -0.4887 -738.1079 479.5566)">
				<stop  offset="0" style="stop-color:#642400"/>
				<stop  offset="0.3477" style="stop-color:#7F3802"/>
				<stop  offset="0.702" style="stop-color:#441E0E"/>
				<stop  offset="1" style="stop-color:#441E0E"/>
			</linearGradient>
			<path class="st6" d="M313.66-31.05c0.15,0.14,0.3,0.28,0.44,0.42c2.68,2.66,4.54,5.57,6.95,8.29c3.08,3.48,6.23,6.93,9.38,10.35
				c1.56,1.69,3.13,3.36,4.69,5.03c0.17,0.09,0.35,0.18,0.51,0.26c4.13,2.15,7.83,4.56,11.98,6.69c1.03,0.53,2.05,1.05,3.07,1.58
				c-8.1-5.92-16.04-11.95-22.42-18.82c-4.53-4.88-9.14-9.99-14.18-14.74C313.91-31.69,313.78-31.38,313.66-31.05z"/>
			
				<linearGradient id="SVGID_8_" gradientUnits="userSpaceOnUse" x1="-1014.5771" y1="1250.2306" x2="-1014.5771" y2="977.7277" gradientTransform="matrix(-0.9978 -0.0539 0.061 -0.4887 -738.1079 479.5566)">
				<stop  offset="0" style="stop-color:#642400"/>
				<stop  offset="0.3477" style="stop-color:#7F3802"/>
				<stop  offset="0.702" style="stop-color:#441E0E"/>
				<stop  offset="1" style="stop-color:#441E0E"/>
			</linearGradient>
			<path class="st7" d="M303.09-3.15c2.65,0.29,5.31,0.59,7.91,0.98c5.86,0.85,13.05,1.24,18.1,3.57c2.89,1.34,5.15,3.17,7.39,4.99
				c0.41,0.2,0.82,0.4,1.21,0.62c4.24,2.43,7.26,5.64,12.12,7.49c4.92,1.88,10.11,3.26,14.33,5.85c3.86,2.38,7.32,5.32,12.45,6.14
				c-5.11-3.84-11.04-6.99-16.77-10.09c-5.55-2.99-10.6-6.76-15.53-10.43c-5.24-3.92-11.65-7.01-18.71-8.5
				c-7.39-1.55-15.12-2.66-22.76-3.74C302.46-5.26,302.47-4.22,303.09-3.15z"/>
			
				<linearGradient id="SVGID_9_" gradientUnits="userSpaceOnUse" x1="-1020.337" y1="1169.2817" x2="-1089.959" y2="940.4464" gradientTransform="matrix(-0.9978 -0.0539 0.061 -0.4887 -738.1079 479.5566)">
				<stop  offset="0" style="stop-color:#642400"/>
				<stop  offset="0.3477" style="stop-color:#7F3802"/>
				<stop  offset="0.702" style="stop-color:#441E0E"/>
				<stop  offset="1" style="stop-color:#441E0E"/>
			</linearGradient>
			<path class="st8" d="M303.61-7.68c2.51,0.46,5.04,1.02,7.43,1.51c6.37,1.3,13.41,1.88,19.55,3.7c1.52,0.46,3.16,0.96,4.57,1.61
				c1.03,0.47,1.96,1.08,3.11,1.42c1.71,0.51,3.63,0.9,4.75,2.02c0.65,0.64,1.16,1.39,1.89,2c3.69,3.06,8.85,5.18,12.83,8.01
				c1.77,1.25,2.88,2.88,4.97,4.25c0.92,0.6,1.87,1.07,3,1.5c1.18,0.45,2.41,0.48,3.54,1.07c2.23,1.15,4,2.8,6.13,4.06
				c0.22,0.13,0.44,0.25,0.66,0.38c0.17,0.24,0.36,0.47,0.6,0.69c1.31,1.22,2.95,2.18,4.73,3.06c2.22,1.09,4.06,2.41,6.05,3.67
				c0.67,0.42,1.38,0.79,2.08,1.14c-0.95-0.29-2-0.47-2.99-0.72c-2.9-0.72-5.77-1.53-8.62-2.35c-2.89-0.83-5.55-1.87-8.35-2.82
				c-2.76-0.95-5.66-1.64-8.5-2.5c-0.47-0.14-0.91,0.26-0.73,0.57c0.64,1.07,2.27,1.62,3.62,2.16c2.64,1.06,4.78,2.61,7.37,3.68
				c2.71,1.11,5.86,1.67,8.32,3.06c2.2,1.24,4.17,2.62,6.54,3.69c5.3,2.37,11.14,3.82,16.64,5.91c2.87,1.09,5.49,2.32,8.1,3.71
				c1.25,0.67,2.62,1.24,3.91,1.89c-2.03-0.47-3.93-1.05-5.98-1.77c-0.95-0.33-3.75-1.53-4.71-0.81c-0.29,0.21-0.27,0.5-0.05,0.73
				c0.74,0.84,2.26,1.48,3.29,2.1c1.74,1.04,3.58,1.99,5.43,2.93c3.5,1.78,6.9,3.51,10.7,4.93c4.43,1.66,7.83,4.32,11.32,6.83
				c3.26,2.34,7.22,3.91,10.45,6.24c1.33,0.96,2.43,2.07,3.65,3.09c1.49-1.02,2.83-2.15,3.93-3.19c0.6-0.56,1.14-1.12,1.65-1.71
				c0.03-0.76,0.22-1.5,0.97-2.15c0.23-0.19,0.34-0.46,0.42-0.7c0.32-0.88,0.26-1.49-0.4-2.28c-1.62-1.98-4.88-3.27-6.89-5.05
				c1.41,0.46,2.84,1.1,4.15,1.56c1.96,0.7,3.68,1.66,5.5,2.53c0.38-1.05,0.63-2.13,0.72-3.19c-1.42-0.93-2.97-1.68-4.55-2.47
				c-3.77-1.87-7.8-3.62-11.36-5.56c-7.87-4.28-16.31-8.03-24.4-12.05c-3.78-1.88-7.41-4.08-11.33-5.91
				c-3.53-1.64-7.18-3.62-11.14-4.7c-0.62-0.17-0.82,0.43-0.38,0.66c1.83,0.97,3.75,1.84,5.45,2.92c1.78,1.12,3.37,2.41,5.22,3.44
				c2.36,1.31,5.08,2.54,7.14,4.11c-2.44-1.01-4.79-2.08-7.07-3.33c-2.53-1.4-5.07-2.79-7.92-3.86c-3.51-1.33-6.54-3.27-9.49-5.14
				c-0.32-0.2-0.66-0.42-1.01-0.63c-1.52-1.23-2.88-2.56-4.29-3.97c-1.59-1.6-3.07-3.21-4.97-4.66c-1.87-1.42-3.86-2.77-5.75-4.19
				c-2.6-1.96-5.16-4.05-8.35-5.61c-1.41-1.09-2.86-2.15-3.93-3.35c-0.78-0.89-1.13-1.88-2.08-2.69c-1.09-0.92-2.23-1.82-3.34-2.74
				c-1.96-1.63-4.4-3.15-6.66-4.62c-2.8-1.83-4.43-3.84-6.37-6.07c-1.9-2.17-4.39-4.06-6.57-6.12c-2.14-2.04-3.61-4.21-5.55-6.32
				c-2-2.19-4.39-4.14-7.06-6.06c-1.42-1.01-3.1-2.99-5.24-3.47c-0.69-0.16-1.14,0.17-0.88,0.59c1.1,1.81,3.66,3.11,4.85,4.93
				c1.19,1.81,2.57,3.55,4.1,5.26c1.61,1.79,3.56,3.46,5.52,5.09c0.96,0.81,2.06,1.54,3.02,2.34c0.1,0.09,0.36,0.31,0.66,0.56
				c-0.15,0.1-0.21,0.26-0.04,0.47c1.36,1.8,3.47,3.53,5.41,5.08c2.07,1.67,3.58,3.6,5.63,5.25c2.07,1.66,4.76,2.78,6.32,4.67
				c1.53,1.86,2.32,3.97,4.19,5.68c0.93,0.85,2,1.66,3.1,2.47c-1.15-0.62-2.28-1.25-3.36-1.94c-3.99-2.54-9.58-4.11-13.18-6.94
				c-2.87-2.26-6.51-4.13-11.02-4.62c-6.16-0.68-12.26-1.24-18.29-2.33c-2.45-0.45-5.06-0.71-7.67-0.97
				c-0.68-0.14-1.35-0.27-2.03-0.4C304.06-8.23,303.84-7.97,303.61-7.68z"/>
			
				<linearGradient id="SVGID_10_" gradientUnits="userSpaceOnUse" x1="-892.1662" y1="1069.7904" x2="-910.543" y2="1009.3893" gradientTransform="matrix(-0.9978 -0.0539 0.061 -0.4887 -738.1231 479.5559)">
				<stop  offset="0" style="stop-color:#642400"/>
				<stop  offset="0.3477" style="stop-color:#7F3802"/>
				<stop  offset="0.702" style="stop-color:#441E0E"/>
				<stop  offset="1" style="stop-color:#441E0E"/>
			</linearGradient>
			<path class="st9" d="M100.8,46.04c2.38-0.93,5.05-1.37,7.53-2.02c3.34-0.87,6.45-2.2,9.71-3.3c3.29-1.11,6.72-1.62,10.01-2.78
				c3.32-1.17,6.53-2.8,9.61-4.34c6.21-3.11,12.26-6.54,18.28-9.9c1.39-0.77,2.76-1.57,4.09-2.41c1.21-0.76,2-1.83,3.17-2.63
				c0.7-0.47,1.55-0.83,2.38-1.16c-2.49,0.19-5.14,0.05-7.1,0.15c-7.09,0.38-14.21,1.5-21.16,3.19c-5.97,1.46-12.01,2.19-18,3.53
				c-0.85,0.2-2.19,0.51-2.75-0.06c-0.63-0.61,0.39-1.24,1.14-1.5c1.89-0.64,3.97-0.6,5.9-1.13c3.13-0.86,6.21-1.85,9.32-2.79
				c3.3-1,6.7-1.64,10.08-2.47c3.09-0.75,5.74-2.23,8.79-2.96c6-1.44,12.27-1.26,18.37-2.06c6.48-0.85,12.96-1.23,19.44-1.7
				c3.26-0.72,6.49-1.46,9.82-1.77c4.09-0.39,7.67-0.63,11.62-1.82c3.2-0.97,6.53-1.32,9.86-1.61c7.16-0.61,14.57-1.42,21.62-1.48
				c7.31-0.06,14.82,0.85,22.13,1.01c15.28,0.33,30.98,0.43,45.73,2.62c3.64,0.55,7.42,1.38,11.26,1.78
				c3.39,0.35,6.46,0.89,9.58,1.85c3.51,1.08,6.82,2.46,10.15,3.76c2.44,0.96,5.02,1.81,7.39,2.85c1.93,0.63,3.9,1.19,5.91,1.66
				c1.78,0.42,3.2,1.22,4.69,1.97c1.02,0.52,2.36,0.71,3.08,1.45c0.19,0.2,0.08,0.51-0.27,0.58c-1.47,0.27-2.9-0.33-4.2-0.75
				c-2.59-0.85-5.47-1.39-8.19-2.01c-2.83-0.64-5.85-0.68-8.71-1.24c-1.91-0.37-3.95-0.8-5.99-1.06c1.13,0.35,2.25,0.71,3.36,1.09
				c2.23,0.76,3.98,1.98,6.19,2.74c0.5,0.17,0.35,0.85-0.29,0.72c-4.6-0.96-9.03-2.28-13.65-3.23c-5.27-1.1-10.58-2.24-15.81-3.35
				c-10.24-2.18-20.55-4.64-30.92-6.18c-4.82-0.72-9.68-1.13-14.79-1.15c-5.46-0.03-10.94,0.43-16.4,0.66
				c-5.6,0.23-11.12,0.28-16.72,0.9c-2.49,0.28-4.95,0.69-7.43,1.05c-2.48,0.36-5.07,0.31-7.56,0.63c-0.46,0.06-0.87-0.23-0.96-0.51
				c-1.41,0.28-2.8,0.59-4.09,0.77c-3.11,0.44-6.23,0.76-9.34,1.11c-3.54,0.39-7.05,0.7-10.58,1.11c-3.42,0.4-6.58,1.63-10.03,1.61
				c-3.56-0.03-7.14-0.99-10.69,0.25c-3.03,1.06-6.05,2.8-8.59,4.42c-5.24,3.35-10.88,6.25-16.46,9.2c-5.3,2.8-9.95,5.84-15.5,8.29
				c-5.78,2.55-12.08,4.49-18.24,6.08c-3.41,0.88-6.75,2.01-10.14,2.93c-1.59,0.44-5.12,1.5-5.94-0.05
				C100.38,46.37,100.54,46.16,100.8,46.04z"/>
			
				<linearGradient id="SVGID_11_" gradientUnits="userSpaceOnUse" x1="-760.6234" y1="1009.8594" x2="-765.6499" y2="993.3382" gradientTransform="matrix(-0.9978 -0.0539 0.061 -0.4887 -738.1231 479.5559)">
				<stop  offset="0" style="stop-color:#642400"/>
				<stop  offset="0.3477" style="stop-color:#7F3802"/>
				<stop  offset="0.702" style="stop-color:#441E0E"/>
				<stop  offset="1" style="stop-color:#441E0E"/>
			</linearGradient>
			<path class="st10" d="M54.66,37.91c3.61-2.01,7.77-2.89,11.81-3.78c5.67-1.25,11.39-2.23,17.06-3.39
				c6.03-1.24,11.94-2.69,17.88-4.33c4.01-1.11,8.7-2.47,12.69-1.98c0.37,0.05,0.76,0.5,0.23,0.71c-1.65,0.63-3.44,0.79-5.2,1.02
				c-0.14,0.03-0.3,0.07-0.44,0.1c-2.41,0.64-4.86,1.05-7.32,1.53c-2.62,0.52-5.23,0.99-7.84,1.49c-2.57,0.61-5.15,1.18-7.73,1.71
				c-0.5,0.1-1.02,0.2-1.52,0.3c-9.82,1.98-19.74,3.94-29.22,7C54.75,38.39,54.26,38.12,54.66,37.91z"/>
			
				<linearGradient id="SVGID_12_" gradientUnits="userSpaceOnUse" x1="-749.3944" y1="960.6384" x2="-758.3391" y2="931.2389" gradientTransform="matrix(-0.9978 -0.0539 0.061 -0.4887 -738.1231 479.5559)">
				<stop  offset="0" style="stop-color:#642400"/>
				<stop  offset="0.3477" style="stop-color:#7F3802"/>
				<stop  offset="0.702" style="stop-color:#441E0E"/>
				<stop  offset="1" style="stop-color:#441E0E"/>
			</linearGradient>
			<path class="st11" d="M44.72,67.73c0.94-1.05,2.22-1.52,3.59-2.1c1.93-0.81,3.83-1.83,5.65-2.8c1.22-0.65,2.45-1.36,3.68-2.01
				c1.69-0.89,3.34-1.8,5-2.67c2.32-1.34,4.66-2.65,7.22-3.69c4.67-1.9,9.56-4.49,14.56-5.42c2.35-0.44,4.75-0.3,7.07-0.37
				c2.25-0.07,4.62-0.6,6.87-0.83c0.64-0.07,1.12,0.65,0.34,0.87c-0.09,0.03-0.17,0.05-0.26,0.07c-0.12,0.04-0.24,0.04-0.35,0.02
				c-1.53,0.2-3.07,0.41-4.61,0.67c-0.71,0.12-1.41,0.17-2.12,0.2c-1.82,0.46-3.63,0.98-5.42,1.48c-5.16,1.45-10.44,2.59-15.56,4.26
				c-0.39,0.13-0.77,0.25-1.14,0.39c-1.59,0.66-3.15,1.34-4.65,2.18c-1.89,1.07-3.66,2.25-5.61,3.25c-2.26,1.17-4.63,2.23-6.9,3.35
				c-0.33,0.16-0.68,0.31-1.05,0.46c-1.95,0.98-3.74,2.19-5.76,3.06C44.99,68.25,44.43,68.03,44.72,67.73z"/>
			<path class="st12" d="M417.79,50.8c3.08,1.7,6.24,3.37,9.12,5.24c2.48,1.61,4.7,3.42,7.15,5.03c2.76,1.82,5.62,3.52,8.42,5.28
				c1.71,1.09,3.4,2.31,5.49,2.99c0.03,0.01,0.03-0.03,0.01-0.04c-2.87-1.09-5.75-3.17-8.15-4.81c-2.45-1.69-4.78-3.49-7.04-5.32
				c-4.22-3.42-9.22-6.46-14.71-8.81C417.73,50.2,417.5,50.64,417.79,50.8z"/>
			<path class="st13" d="M367.18,27.41c3.07,1.66,6.81,2.39,9.95,3.93c2.86,1.4,5.78,2.86,8.9,3.97c6.79,2.4,13.7,4.79,20.27,7.41
				c7.12,2.85,14.1,6.01,20.54,9.61c3.18,1.78,6.12,4.15,9.18,6.19c2.13,1.42,3.97,3.09,6.26,4.29c0.03,0.01,0.04-0.02,0.02-0.03
				c-3.01-1.64-5.6-4.07-8.35-6.02c-2.72-1.93-5.54-3.84-8.54-5.56c-5.93-3.43-12.27-6.44-18.83-9.12
				c-6.62-2.71-13.42-5.19-20.26-7.58c-3.35-1.17-6.37-2.62-9.55-4c-2.99-1.31-6.36-2.07-9.37-3.39
				C367.12,26.98,366.97,27.28,367.18,27.41z"/>
			<path class="st13" d="M191.69,12.11c6.56-1.55,13.18-2.84,19.91-3.84c6.48-0.98,13.17-2.11,19.72-2.3
				c6.25-0.19,12.29,0.59,18.56,0.43c6.42-0.16,13.04-0.29,19.27-0.07c12.83,0.44,25.64,1.77,38.28,3.44
				c6.26,0.82,12.39,2.16,18.57,3.28c6.21,1.12,12.09,3.07,18.11,4.34c0.01,0.01,0.01-0.01,0-0.01c-6.38-1.54-12.68-3.36-19.12-4.69
				c-6.12-1.25-12.33-2.59-18.57-3.66c-6.53-1.11-13.28-1.77-19.96-2.4c-2.97-0.28-5.99-0.64-9.02-0.7
				c-3.1-0.05-6.25,0.13-9.33,0.07c-6.76-0.13-13.63,0.07-20.4,0.13c-6.17,0.05-12.38-0.95-18.47-0.36
				c-12.7,1.22-25.4,3.11-37.75,6.08C191.23,11.9,191.44,12.17,191.69,12.11z"/>
			<path class="st12" d="M110.72,28.89c7.49-1.33,15.14-2.37,22.62-3.79c6.92-1.32,13.94-2.47,20.9-3.53
				c0.11-0.02,0.05-0.13-0.04-0.11c-7.35,1.19-14.76,2.43-22.05,3.53c-7.16,1.08-14.55,1.92-21.64,3.49
				C110.08,28.58,110.38,28.95,110.72,28.89z"/>
			<path class="st12" d="M34.01,49.79c12.01-4.76,24.06-9.47,36.37-12.6c10.65-2.71,22.1-4.96,32.99-7.7
				c0.16-0.05,0.05-0.2-0.09-0.17c-5.61,1.34-11.43,2.62-17.12,3.84c-5.96,1.29-11.93,2.87-17.94,3.99
				c-6.01,1.12-11.99,3.14-17.76,5.24c-5.7,2.06-11.39,4.32-16.78,7C33.27,49.61,33.65,49.93,34.01,49.79z"/>
			<path class="st13" d="M143.14,36.37c7.43-2.11,14.4-5.53,20.44-9.79c2.86-2.01,6.63-4.94,10.43-5.86
				c3.16-0.76,6.52-0.31,9.47-1.67c0.11-0.06-0.03-0.17-0.14-0.12c-3.51,1.5-7.56,0.54-11.06,2.13c-2.98,1.36-5.93,2.93-8.58,4.63
				c-3.44,2.21-6.65,4.45-10.52,6.19c-3.37,1.51-6.88,2.73-10.32,4.04C142.49,36.07,142.81,36.47,143.14,36.37z"/>
			<path class="st12" d="M212.24,16.45c10.9-0.89,21.92-1.28,32.86-1.52c10.25-0.23,20.5,0,30.64,0.63
				c10.79,0.68,21.63,1.37,32.04,2.87c4.94,0.72,9.8,1.99,14.84,2.69c2.43,0.33,4.86,0.62,7.31,0.94c2.17,0.28,4.1,1,6.26,1.27
				c0.11,0.02,0.12-0.11,0.02-0.12c-2.42-0.33-4.66-1.11-7.13-1.39c-2.47-0.3-4.97-0.62-7.42-1c-5.03-0.77-9.85-1.98-14.89-2.72
				c-10.23-1.5-20.6-2.6-31.02-3.45c-10.46-0.85-21.12-0.88-31.74-0.24c-10.57,0.64-21.22,0.93-31.8,1.83
				C211.97,16.27,212.05,16.49,212.24,16.45z"/>
			<path class="st12" d="M339.55,25.42c8.42,2.64,16.82,5.72,25.14,8.66c4.09,1.45,8.21,3.01,12.28,4.54
				c1.98,0.74,5.78,2.44,5.78,2.44s-1.09-0.43-1.62-0.64c-0.45-0.18-0.56,0.34-0.29,0.52c2.24,1.39,5.06,2.21,7.71,3.13
				c2.83,0.98,5.45,2.18,7.94,3.55c2.41,1.32,4.7,2.77,7.22,3.97c1.39,0.66,2.38,1.77,4.1,2c0.14,0.02,0.14-0.15,0.02-0.17
				c-1.35-0.18-2.28-0.91-3.19-1.58c-0.84-0.62-2.31-1.14-3.3-1.7c-2.34-1.3-4.58-2.7-6.95-3.99c-3.28-1.79-6.96-3.22-10.6-4.65
				c-0.62-0.3-1.21-0.59-1.79-0.84c-1.67-0.73-3.27-1.52-4.99-2.2c-4.31-1.71-8.74-3.35-13.06-5.01c-8-3.08-16.07-6.19-24.31-8.57
				C339.16,24.72,339.14,25.3,339.55,25.42z"/>
			<path class="st12" d="M334.64,3.89c2.96,2.5,6.23,5.29,9.91,7.27c3.87,2.06,8.15,3.63,12.08,5.59c1.97,0.98,3.89,1.68,6.09,2.37
				c2.17,0.68,3.85,2.07,5.83,2.96c2.14,0.96,4.24,1.93,6.08,3.16c0.96,0.64,1.94,1.22,3.15,1.62c0.25,0.07,0.28-0.2,0.08-0.27
				c-1.85-0.66-3.01-1.88-4.59-2.78c-1.62-0.92-3.44-1.67-5.08-2.58c-1.38-0.76-2.79-2.05-4.4-2.6c-2.34-0.8-4.53-1.57-6.67-2.61
				c-4.08-1.99-8.92-3.54-12.61-5.91c-3.25-2.08-6.05-4.5-9.46-6.49C334.77,3.46,334.42,3.68,334.64,3.89z"/>
			<path class="st12" d="M302.64-4.31c7.32,0.79,14.62,1.65,21.83,2.77c5.79,0.89,9.95,3.23,14.43,5.78
				c1.5,0.85,2.84,1.71,4.16,2.67c0.65,0.47,1.11,0.79,2.05,0.82c0.08,0,0.06-0.1-0.02-0.1c-1.48-0.07-2.19-1.11-2.97-1.8
				c-0.53-0.47-1.59-0.9-2.27-1.3c-1.75-1.01-3.49-2.09-5.32-3.05c-3.31-1.73-6.92-3.17-10.96-3.84c-6.91-1.16-13.93-2.02-21-2.68
				C302.57-4.8,302.59-4.56,302.64-4.31z"/>
			<path class="st13" d="M324.03-20.9c1.62,1.61,3.51,3.06,4.95,4.75c0.87,1.03,1.78,2.04,2.74,3.05c2.2,2.28,4.02,4.67,5.97,7.03
				c2.83,3.44,7.95,5.33,12.49,7.65c1.51,1.21,2.69,2.63,4.22,3.83c0.12,0.09,0.29-0.05,0.16-0.14c-1.28-1-2.32-2.19-3.54-3.25
				c1.15,0.62,2.26,1.27,3.25,1.99c0.46,0.33,1.12-0.15,0.75-0.44C350-0.29,342.55-2.77,337.97-7c-2.1-1.94-4.23-4.58-6.44-6.84
				c-1.17-1.2-2.2-2.45-3.37-3.66c-1.18-1.22-2.76-2.28-4.01-3.46C324.09-21.02,323.96-20.96,324.03-20.9z"/>
			<path class="st12" d="M402.54,35.94c2.82,1.39,5.69,2.77,8.47,4.21c2.93,1.52,5.52,3.4,8.34,4.98
				c5.76,3.22,11.96,6.04,18.12,8.77c1.63,0.72,3.27,1.46,5.07,1.98c2.22,0.65,1.44-0.62,0.68-1.49c-1.16-1.31-2.58-2.49-4.08-3.6
				c-1.85-1.37-3.94-2.41-6.17-3.35c2.34,1.36,5,2.72,6.32,4.57c0.13,0.19,0.57,1.18-0.3,0.99c-3.04-0.64-6.01-2.32-8.57-3.61
				c-1.56-0.8-3.05-1.67-4.47-2.59c-1.49-0.97-2.48-2.21-3.97-3.17c-0.31-0.2-0.28-0.63,0.19-0.67c1.38-0.12,2.81,0.59,3.94,1.08
				c2.49,1.08,5.01,2.11,7.47,3.21c4.79,2.15,8.63,5.25,11.33,8.73c0.04,0.06,0.04,0.15-0.04,0.19c-1.6,0.73-4.13-0.43-5.55-0.98
				c-3.85-1.47-7.65-3.16-11.28-4.88c-4.26-2.02-8.31-4.21-12.22-6.57c-2.02-1.21-3.86-2.53-5.98-3.66
				c-2.48-1.33-5.03-2.58-7.5-3.92C402.14,36.05,402.31,35.82,402.54,35.94z M423.42,43.79c1.19,1.01,2.21,2.12,3.56,3.06
				c1.97,1.37,4.21,2.67,6.54,3.7c0.94,0.42,1.87,0.87,2.81,1.31c0.46,0.21,0.93,0.41,1.42,0.59c1.4-0.45,1.47-0.98,0.22-1.6
				c-1.61-1.35-3.61-2.46-5.49-3.65c-0.78-0.33-1.59-0.64-2.4-0.96C428.37,45.59,425.66,44.15,423.42,43.79z"/>
			<path class="st12" d="M397.24,32.5c0.07,0.03,0.09-0.06,0.03-0.07C397.21,32.4,397.17,32.48,397.24,32.5z"/>
			<path class="st13" d="M357.03,8.17c4.55,1.71,7.77,4.23,11.53,6.57c3.39,2.11,6.59,4.32,9.96,6.39c3.5,2.15,6.62,4.55,9.97,6.76
				c2.52,1.67,5.15,3.79,8.37,4.71c0.07,0.02,0.08-0.06,0.03-0.07c-3.89-1.13-7.45-4.13-10.36-6.19c-3.27-2.31-6.81-4.49-10.17-6.79
				c-3.35-2.28-6.88-4.5-10.15-6.87c-2.56-1.86-5.32-4.13-8.99-4.96C356.79,7.6,356.69,8.05,357.03,8.17z"/>
			<path class="st12" d="M443.39,61.18c2.2,1.63,4.37,3.84,7.67,4.26c0.18,0.03,0.19-0.22,0.02-0.24c-3.21-0.46-5.21-2.69-7.47-4.21
				C443.42,60.86,443.24,61.07,443.39,61.18z"/>
			<path class="st12" d="M437,46.52c5.15,2.25,10.13,4.69,15.26,6.97c2.36,1.05,4.5,2.47,6.71,3.69c0-0.19-0.01-0.38-0.03-0.57
				c-2.09-1.21-4.12-2.6-6.38-3.6c-5.16-2.28-10.01-4.88-15.28-7.01C436.8,45.81,436.6,46.35,437,46.52z"/>
			<path class="st12" d="M296.58,3.88c4.39,0.69,8.81,1.61,13.3,2.03c2.21,0.21,4.52,0.29,6.66,0.71c1.91,0.37,3.74,0.83,5.73,1
				c4.78,0.44,8.94,0.94,13.3,2.41c3.31,1.11,6.56,2.21,9.62,3.54c0.03,0.01,0.04-0.03,0.02-0.04c-6.59-3.27-14.06-5.61-21.99-6.25
				c-2.63-0.21-4.95-1.11-7.54-1.46c-1.9-0.25-3.83-0.37-5.74-0.6c-4.46-0.54-8.8-1.53-13.33-1.83
				C296.1,3.35,296.18,3.81,296.58,3.88z"/>
			<path class="st13" d="M131.4,19.86c5.44-1.14,10.69-2.91,16.11-4.17c5.53-1.29,10.9-1.74,16.5-2.27c5.53-0.53,11-1.79,16.49-2.69
				c2.43-0.4,4.89-0.97,7.34-1.28c1.68-0.21,3.43-0.46,5.02-0.95c0.04-0.01,0.01-0.06-0.03-0.05c-2.14,0.59-4.59,0.73-6.81,1.17
				c-2.87,0.57-5.79,0.95-8.68,1.43c-5.57,0.93-11.21,1.62-16.55,2.09c-10.02,0.89-19.96,3.49-29.6,6.28
				C130.76,19.55,131.01,19.94,131.4,19.86z"/>
			<path class="st12" d="M91.38,29.57c8.83-2.06,17.72-4.66,26.54-7.21c4.33-1.24,8.69-2.46,12.97-3.89
				c4.95-1.65,10-3.16,15.14-3.95c0.08-0.01,0.03-0.08-0.03-0.07c-9.43,1.79-18.91,4.67-28.32,7.43c-4.39,1.29-9.12,2.28-13.51,3.81
				c-4.2,1.46-8.75,2.22-13.04,3.45C90.64,29.26,91.01,29.64,91.38,29.57z"/>
			<path class="st12" d="M73.43,35.18c3.43-1.07,6.95-1.87,10.4-2.84c2.09-0.59,5.38-1.11,7.14-2.22c0.09-0.07-0.02-0.16-0.11-0.1
				c-1.23,0.72-3.01,0.88-4.42,1.31c-1.5,0.46-2.96,0.83-4.47,1.21c-2.9,0.73-5.82,1.5-8.63,2.5C73.17,35.1,73.29,35.24,73.43,35.18
				z"/>
			<path class="st12" d="M85.26,53.16c2.42-0.61,4.84-1.33,7.3-1.76c1.84-0.33,3.68-0.33,5.5-0.67c3.46-0.63,7.09-0.84,10.48-1.86
				c1.39-0.42,2.82-0.55,4.21-1.02c1.47-0.49,2.88-1.11,4.39-1.46c2.21-0.52,4.64-0.89,6.4-2.17c0.05-0.04-0.04-0.08-0.09-0.06
				c-2.6,1.61-6.38,1.81-9.31,2.82c-3.03,1.05-6.6,1.5-9.77,1.99c-3.36,0.52-6.71,0.83-10.07,1.29c-3.21,0.45-6.29,1.37-9.38,2.36
				C84.36,52.8,84.81,53.28,85.26,53.16z"/>
			<path class="st12" d="M65.63,56.37c5.45-2.43,10.85-4.93,16.52-6.94c2.97-1.05,5.85-1.93,8.92-2.61c2.21-0.49,4.43-0.71,6.6-1.29
				c0.08-0.03,0.02-0.1-0.05-0.08c-2.75,0.78-5.82,0.94-8.7,1.51c-2.7,0.54-5.38,1.55-7.97,2.44c-5.37,1.85-10.83,3.85-15.77,6.5
				C64.74,56.14,65.27,56.54,65.63,56.37z"/>
			<path class="st12" d="M182.62,20.08c8.29-0.13,16.73-0.89,25.11-1.95c2.18-0.28,4.23-0.05,6.39-0.2
				c1.91-0.15,3.83-0.27,5.74-0.39c2.13-0.13,4.24-0.33,6.37-0.48c1.29-0.09,2.59,0.02,3.85-0.17c0.09-0.01,0.03-0.1-0.05-0.09
				c-1.3,0.18-2.53-0.03-3.83,0.09c-0.97,0.09-1.97,0.21-2.95,0.23c-1.71,0.03-3.44,0.07-5.16,0.11c-3.87,0.1-7.62-0.19-11.45,0.23
				c-7.96,0.86-16.08,1.37-24.05,2.18C182.22,19.69,182.32,20.09,182.62,20.08z"/>
			<path class="st12" d="M226.81,16.43c3.32,0.49,6.87-0.02,10.28-0.06c3.54-0.04,7.06-0.16,10.6-0.24
				c3.55-0.08,7.11-0.3,10.67-0.48c3.01-0.16,6.08,0.4,9.02-0.21c0.05-0.02,0.02-0.07-0.02-0.07c-2.18,0.28-4.09-0.11-6.23-0.27
				c-1.56-0.12-3.16-0.03-4.74,0.01c-3.26,0.08-6.51,0.21-9.76,0.27c-6.56,0.11-13.3,0.52-19.82,0.46
				C226.3,15.84,226.42,16.37,226.81,16.43z"/>
			<path class="st12" d="M409.75,54.47c6.63,4.33,13.44,8.59,20.12,12.89c2.72,1.76,5.45,3.45,8.39,5.01c2.38,1.27,4,2.37,5.42,3.24
				c0.23-0.07,0.44-0.15,0.67-0.23c-1.89-1.2-3.76-2.42-5.79-3.5c-3.42-1.81-6.5-3.83-9.68-5.85c-6.26-3.98-12.53-7.97-18.77-11.97
				C409.76,53.83,409.43,54.26,409.75,54.47z"/>
			<path class="st12" d="M363.57,32.62c6.67,2.5,13.69,4.75,20.15,7.53c2.97,1.27,6.09,2.55,8.98,3.97c1.36,0.66,3.32,2.1,5.08,2.08
				c0.11,0,0.07-0.13-0.03-0.13c-1.33-0.02-3.1-1.29-4.14-1.82c-1.26-0.64-2.57-1.24-3.88-1.83c-2.76-1.25-5.43-2.64-8.23-3.85
				c-5.64-2.46-11.69-4.43-17.62-6.58C363.38,31.82,363.18,32.46,363.57,32.62z"/>
			<path class="st13" d="M360.64,27.88c4.04,2.03,8.96,3.16,13.26,4.91c4.46,1.83,8.75,3.86,13.15,5.74
				c4.28,1.82,8.5,3.5,11.84,6.16c2.69,2.14,6.41,3.44,9.34,5.26c7.21,4.49,14.36,9.31,21.56,13.83c3.47,2.17,7.23,4.26,10.92,6.33
				c2.12,1.2,4.21,2.78,6.44,3.94c0.05-0.03,0.1-0.07,0.15-0.09c-1.25-0.72-2.41-1.53-3.6-2.25c-1.71-1.02-3.46-2.02-5.19-3.05
				c-3.9-2.28-7.96-4.58-11.6-6.97c-6.52-4.31-13-8.97-19.69-13.02c-1.8-1.09-4.06-1.94-5.94-3.08c-1.55-0.95-2.81-2.11-4.38-3.04
				c-3.22-1.91-6.91-3.21-10.55-4.67c-4.45-1.77-8.67-3.84-13.15-5.61c-4.07-1.61-8.41-2.84-12.47-4.49
				C360.62,27.72,360.56,27.83,360.64,27.88z"/>
			<path class="st12" d="M457.76,63.17c-2.79-1.89-5.24-4.03-8.33-5.71c-0.27-0.14-0.38,0.18-0.18,0.3c2.8,1.7,5.38,3.56,7.9,5.45
				c0.13,0.1,0.29,0.2,0.45,0.31C457.65,63.4,457.7,63.29,457.76,63.17z"/>
			<path class="st12" d="M442.53,57.91c1.49,0.72,3.22,1.34,4.64,2.15c1.69,0.97,3.23,2.03,5.08,2.82c0.14,0.07,0.23-0.11,0.1-0.17
				c-1.83-0.8-3.24-2.03-5.05-2.87c-1.55-0.72-3.1-1.44-4.68-2.11C442.48,57.68,442.42,57.84,442.53,57.91z"/>
			<path class="st12" d="M426.79,50.05c1.21,0.81,2.63,1.4,4.06,2c1.54,0.63,2.9,1.46,4.42,2.11c0.19,0.08,0.29-0.15,0.12-0.22
				c-2.83-1.29-5.7-2.72-8.45-4.1C426.78,49.76,426.68,49.97,426.79,50.05z"/>
			<path class="st12" d="M380.1,24.58c5.13,3.15,10.16,6.95,16.08,9.18c3.21,1.2,6.7,2.17,9.92,3.47c3.24,1.32,6.16,2.94,9.05,4.49
				c0.03,0.02,0.06-0.02,0.03-0.04c-2.6-1.5-5.16-3.06-8.14-4.29c-3.23-1.33-6.9-2.29-9.94-3.56c-6.01-2.49-11.16-6.58-16.86-9.45
				C380.06,24.28,379.94,24.49,380.1,24.58z"/>
			<path class="st12" d="M228.09,3.82c2.81-0.31,5.61-0.75,8.44-0.96c2.82-0.2,5.53-0.1,8.33-0.06c2.41,0.04,4.91,0.17,7.34-0.06
				c3.05-0.28,6.06-0.72,9.13-0.73c5.55-0.02,11.01,0.4,16.56,0.46c5.05,0.07,10.07,0.35,15,0.79c0.02,0.01,0.02-0.03,0-0.03
				c-5.11-0.73-10.63-1.02-16.07-1.05c-5.58-0.02-11.01-0.75-16.57-0.69C254.8,1.58,249.2,2.9,243.8,2.57
				c-5.26-0.33-10.58,0.16-15.8,1C227.78,3.6,227.9,3.83,228.09,3.82z"/>
		</g>
	</g>
</g>
</svg>
