<?xml version="1.0" encoding="utf-8"?>
<!-- Generator: Adobe Illustrator 24.0.0, SVG Export Plug-In . SVG Version: 6.00 Build 0)  -->
<svg version="1.1" xmlns="http://www.w3.org/2000/svg" xmlns:xlink="http://www.w3.org/1999/xlink" x="0px" y="0px"
	 viewBox="0 0 103 92.7" style="enable-background:new 0 0 103 92.7;" xml:space="preserve">
<style type="text/css">
	.st0{fill:#48A265;}
	.st1{fill:url(#SVGID_1_);}
	.st2{fill:url(#SVGID_2_);}
	.st3{fill:url(#SVGID_3_);}
	.st4{fill:url(#SVGID_4_);}
	.st5{fill:#020101;}
</style>
<g id="Layer_1">
	<g id="Layer_1_1_">
		<g>
			<g>
				<path class="st0" d="M0.6,71.4c3.8,1.4,8.1,2.7,12.6,3.6c2.4,0.5,4.8,0.8,7.1,1.5s4.4,1.2,6.9,1.5s4.9,0.5,7.4,0.7
					c2-0.9,3.6,2,7.1,2.5c0.9-1.2,5.7-1.4,13.7,1.8c1.7,0.5-4.1-3.6-5.8-4.1c-4.2-1.3-1.3,1-5.9,0.1c-4.8-0.9-9.5-1.4-14.4-1.9
					c-2.6-0.3-4.8-0.7-7.2-1.3c-2.3-0.7-4.6-1.1-7-1.5c-4.6-0.9-9-2.1-12.9-3.5C0.7,70.1-0.9,70.8,0.6,71.4L0.6,71.4z"/>
			</g>
		</g>
		
			<linearGradient id="SVGID_1_" gradientUnits="userSpaceOnUse" x1="10.5398" y1="707.6971" x2="196.3353" y2="748.9672" gradientTransform="matrix(1 0 0 1 0 -674)">
			<stop  offset="3.640000e-02" style="stop-color:#B7D54D"/>
			<stop  offset="6.050000e-02" style="stop-color:#B1D14D"/>
			<stop  offset="0.1511" style="stop-color:#9EC64D"/>
			<stop  offset="0.2449" style="stop-color:#93BF4D"/>
			<stop  offset="0.3457" style="stop-color:#8FBD4D"/>
			<stop  offset="0.4055" style="stop-color:#81BA52"/>
			<stop  offset="0.5472" style="stop-color:#67B45C"/>
			<stop  offset="0.6922" style="stop-color:#54B063"/>
			<stop  offset="0.8411" style="stop-color:#49AE67"/>
			<stop  offset="1" style="stop-color:#45AD68"/>
		</linearGradient>
		<polygon class="st1" points="102,4 97,0 92.5,0.4 94,1.6 95,10.6 94,19.6 91,22.7 88,32.6 88,41.6 89,49.6 85.4,52.6 78.8,59.3 
			77,66.6 76.7,76.7 72,83.6 63.8,88.6 55.4,90.3 50,88.6 39.1,87.5 30.2,85.9 19.2,88 15,86.6 7.4,84.7 8,86 15,87 23,89 
			27.2,90.3 38.2,88.3 47.1,89.8 58,91 63.4,92.7 71.8,90.9 80,86 84.7,79.1 85,69 86.8,61.7 93.4,54.9 97,52 96,44 96,35 99,25.1 
			102,22 103,13 		"/>
		
			<linearGradient id="SVGID_2_" gradientUnits="userSpaceOnUse" x1="10.4446" y1="708.1254" x2="196.2402" y2="749.3954" gradientTransform="matrix(1 0 0 1 0 -674)">
			<stop  offset="3.640000e-02" style="stop-color:#B7D54D"/>
			<stop  offset="4.990000e-02" style="stop-color:#B1D14D"/>
			<stop  offset="0.1009" style="stop-color:#9EC64D"/>
			<stop  offset="0.1535" style="stop-color:#93BF4D"/>
			<stop  offset="0.2102" style="stop-color:#8FBD4D"/>
			<stop  offset="0.2823" style="stop-color:#81BA52"/>
			<stop  offset="0.4534" style="stop-color:#67B45C"/>
			<stop  offset="0.6284" style="stop-color:#54B063"/>
			<stop  offset="0.8082" style="stop-color:#49AE67"/>
			<stop  offset="1" style="stop-color:#45AD68"/>
		</linearGradient>
		<path class="st2" d="M19.2,88l11-2.1l8.9,1.6L50,88.6l5.4,1.7l8.3-1.8l8.3-4.9l4.7-6.9L77,66.6l1.8-7.3l6.5-6.8l3.6-2.9l-1-8v-9
			l3-9.9l3-3.1l1-9l-1-9l-1.5-1.2L87,1L74,0l-6,6l-5,2l-12,3l-4,3l-9,9L16,40L7,50c0,0-5,11-5,12l-1.1,4.9L1,70.4
			c0.4,0,0.8,0.1,1.3,0.2c3.9,1.4,8.2,2.7,12.9,3.5c2.5,0.5,4.7,0.9,7,1.5c2.4,0.7,4.6,1.1,7.2,1.3c4.9,0.5,9.5,1,14.4,1.9
			c4.7,0.9,1.7-1.4,5.9-0.1c1.7,0.5,7.5,4.6,5.8,4.1c-7.9-3.2-12.8-2.9-13.7-1.8c-3.5-0.5-5-3.3-7.1-2.5c-2.5-0.3-4.9-0.4-7.4-0.7
			c-2.5-0.3-4.6-0.9-6.9-1.5s-4.7-1-7.1-1.5C8.9,74.1,4.7,72.9,1,71.5V72l-1,1l2,4l3,3l2.4,4.7l7.6,1.9L19.2,88z M43.5,71
			C36.6,71,31,65.4,31,58.5S36.6,46,43.5,46S56,51.6,56,58.5S50.4,71,43.5,71z"/>
		
			<linearGradient id="SVGID_3_" gradientUnits="userSpaceOnUse" x1="2.3188" y1="706.3204" x2="188.1144" y2="747.5905" gradientTransform="matrix(1 0 0 1 0 -674)">
			<stop  offset="3.640000e-02" style="stop-color:#B7D54D"/>
			<stop  offset="4.990000e-02" style="stop-color:#B1D14D"/>
			<stop  offset="0.1009" style="stop-color:#9EC64D"/>
			<stop  offset="0.1535" style="stop-color:#93BF4D"/>
			<stop  offset="0.2102" style="stop-color:#8FBD4D"/>
			<stop  offset="0.2823" style="stop-color:#81BA52"/>
			<stop  offset="0.4534" style="stop-color:#67B45C"/>
			<stop  offset="0.6284" style="stop-color:#54B063"/>
			<stop  offset="0.8082" style="stop-color:#49AE67"/>
			<stop  offset="1" style="stop-color:#45AD68"/>
		</linearGradient>
		<path class="st3" d="M19.2,88l11-2.1l8.9,1.6L50,88.6l5.4,1.7l8.3-1.8l8.3-4.9l4.7-6.9L77,66.6l1.8-7.3l6.5-6.8l3.6-2.9l-1-8v-9
			l3-9.9l3-3.1l1-9l-1-9l-1.5-1.2L87,1L74,0l-6,6l-5,2l-12,3l-4,3l-9,9L16,40L7,50c0,0-5,11-5,12l-1.1,4.9L1,70.4
			c0.4,0,0.8,0.1,1.3,0.2c3.9,1.4,8.2,2.7,12.9,3.5c2.5,0.5,4.7,0.9,7,1.5c2.4,0.7,4.6,1.1,7.2,1.3c4.9,0.5,9.5,1,14.4,1.9
			c4.7,0.9,1.7-1.4,5.9-0.1c1.7,0.5,7.5,4.6,5.8,4.1c-7.9-3.2-12.8-2.9-13.7-1.8c-3.5-0.5-5-3.3-7.1-2.5c-2.5-0.3-4.9-0.4-7.4-0.7
			c-2.5-0.3-4.6-0.9-6.9-1.5s-4.7-1-7.1-1.5C8.9,74.1,4.7,72.9,1,71.5V72l-1,1l2,4l3,3l2.4,4.7l7.6,1.9L19.2,88z M43.5,71
			C36.6,71,31,65.4,31,58.5S36.6,46,43.5,46S56,51.6,56,58.5S50.4,71,43.5,71z"/>
	</g>
</g>
<g id="eye">
	<g>
		
			<linearGradient id="SVGID_4_" gradientUnits="userSpaceOnUse" x1="42.8967" y1="742.7381" x2="44.3674" y2="717.7806" gradientTransform="matrix(1 0 0 1 0 -674)">
			<stop  offset="9.630000e-02" style="stop-color:#FF904D"/>
			<stop  offset="0.6095" style="stop-color:#ED2F4D"/>
			<stop  offset="0.761" style="stop-color:#EA2F4D"/>
			<stop  offset="0.8692" style="stop-color:#E12F4D"/>
			<stop  offset="0.9637" style="stop-color:#D12F4D"/>
			<stop  offset="1" style="stop-color:#C92F4D"/>
		</linearGradient>
		<circle class="st4" cx="43.5" cy="58.5" r="12.5"/>
		<g id="Layer_2_1_">
			<ellipse class="st5" cx="37.4" cy="56" rx="1.2" ry="1.1"/>
		</g>
	</g>
</g>
</svg>
