<?xml version="1.0" encoding="utf-8"?>
<!-- Generator: Adobe Illustrator 24.0.0, SVG Export Plug-In . SVG Version: 6.00 Build 0)  -->
<svg version="1.1" id="Layer_1" xmlns="http://www.w3.org/2000/svg" xmlns:xlink="http://www.w3.org/1999/xlink" x="0px" y="0px"
	 viewBox="0 0 103 92.7" style="enable-background:new 0 0 103 92.7;" xml:space="preserve">
<style type="text/css">
	.st0{fill:url(#SVGID_1_);}
	.st1{fill:#48A265;}
	.st2{fill:url(#SVGID_2_);}
	.st3{fill:url(#SVGID_3_);}
	.st4{fill:url(#SVGID_4_);}
	.st5{fill:#020101;}
</style>
<g id="Layer_1_1_">
	<linearGradient id="SVGID_1_" gradientUnits="userSpaceOnUse" x1="42.8967" y1="68.7381" x2="44.3674" y2="43.7807">
		<stop  offset="0.0963" style="stop-color:#FF904D"/>
		<stop  offset="0.6095" style="stop-color:#ED2F4D"/>
		<stop  offset="0.761" style="stop-color:#EA2F4D"/>
		<stop  offset="0.8692" style="stop-color:#E12F4D"/>
		<stop  offset="0.9637" style="stop-color:#D12F4D"/>
		<stop  offset="1" style="stop-color:#C92F4D"/>
	</linearGradient>
	<circle class="st0" cx="43.5" cy="58.5" r="12.5"/>
	<g>
		<g>
			<path class="st1" d="M0.64,71.38c3.81,1.43,8.12,2.65,12.65,3.55c2.4,0.47,4.82,0.83,7.1,1.47c2.29,0.65,4.38,1.19,6.93,1.52
				c2.46,0.31,4.91,0.46,7.38,0.74c2.04-0.86,3.61,2,7.06,2.47c0.88-1.17,5.73-1.43,13.65,1.78c1.69,0.52-4.09-3.55-5.79-4.08
				c-4.22-1.3-1.26,0.96-5.92,0.09c-4.83-0.9-9.49-1.39-14.36-1.87c-2.62-0.26-4.82-0.65-7.19-1.34c-2.3-0.67-4.55-1.08-7.02-1.54
				c-4.63-0.86-8.99-2.07-12.85-3.51C0.69,70.07-0.93,70.79,0.64,71.38L0.64,71.38z"/>
		</g>
	</g>
	<linearGradient id="SVGID_2_" gradientUnits="userSpaceOnUse" x1="10.5338" y1="33.7241" x2="196.3293" y2="74.9942">
		<stop  offset="0.0364" style="stop-color:#B7D54D"/>
		<stop  offset="0.0605" style="stop-color:#B1D14D"/>
		<stop  offset="0.1511" style="stop-color:#9EC64D"/>
		<stop  offset="0.2449" style="stop-color:#93BF4D"/>
		<stop  offset="0.3457" style="stop-color:#8FBD4D"/>
		<stop  offset="0.4055" style="stop-color:#81BA52"/>
		<stop  offset="0.5472" style="stop-color:#67B45C"/>
		<stop  offset="0.6922" style="stop-color:#54B063"/>
		<stop  offset="0.8411" style="stop-color:#49AE67"/>
		<stop  offset="1" style="stop-color:#45AD68"/>
	</linearGradient>
	<polygon class="st2" points="102,4 97,0 92.52,0.45 94,1.63 95,10.63 94,19.63 91.01,22.7 88,32.63 88,41.63 89,49.63 85.37,52.56 
		78.85,59.31 77,66.63 76.73,76.7 72,83.63 63.75,88.56 55.4,90.33 50,88.63 39.11,87.48 30.18,85.9 19.17,87.98 15,86.63 
		7.36,84.72 8,86 15,87 23,89 27.17,90.35 38.18,88.27 47.11,89.85 58,91 63.4,92.7 71.75,90.93 80,86 84.73,79.07 85,69 
		86.85,61.68 93.37,54.93 97,52 96,44 96,35 99.01,25.07 102,22 103,13 	"/>
	<linearGradient id="SVGID_3_" gradientUnits="userSpaceOnUse" x1="10.444" y1="34.128" x2="196.2396" y2="75.3981">
		<stop  offset="0.0364" style="stop-color:#B7D54D"/>
		<stop  offset="0.0499" style="stop-color:#B1D14D"/>
		<stop  offset="0.1009" style="stop-color:#9EC64D"/>
		<stop  offset="0.1535" style="stop-color:#93BF4D"/>
		<stop  offset="0.2102" style="stop-color:#8FBD4D"/>
		<stop  offset="0.2823" style="stop-color:#81BA52"/>
		<stop  offset="0.4534" style="stop-color:#67B45C"/>
		<stop  offset="0.6284" style="stop-color:#54B063"/>
		<stop  offset="0.8082" style="stop-color:#49AE67"/>
		<stop  offset="1" style="stop-color:#45AD68"/>
	</linearGradient>
	<path class="st3" d="M19.17,87.98l11.01-2.08l8.93,1.58L50,88.63l5.4,1.7l8.35-1.77L72,83.63l4.73-6.93L77,66.63l1.85-7.32
		l6.52-6.75L89,49.63l-1-8v-9l3.01-9.93L94,19.63l1-9l-1-9l-1.48-1.18L87,1L74,0l-6,6l-5,2l-12,3l-4,3l-9,9L16,40L7,50
		c0,0-5,11-5,12l-1.07,4.93l0.05,3.51c0.39-0.01,0.84,0.05,1.3,0.22c3.86,1.44,8.22,2.65,12.85,3.51c2.47,0.46,4.72,0.87,7.02,1.54
		c2.38,0.69,4.58,1.08,7.19,1.34c4.87,0.49,9.53,0.97,14.36,1.87c4.66,0.87,1.7-1.38,5.92-0.09c1.7,0.52,7.49,4.59,5.79,4.08
		c-7.92-3.21-12.77-2.95-13.65-1.78c-3.46-0.47-5.03-3.33-7.06-2.47c-2.46-0.28-4.92-0.43-7.38-0.74c-2.55-0.32-4.63-0.87-6.93-1.52
		c-2.27-0.64-4.7-1-7.1-1.47c-4.39-0.87-8.58-2.06-12.3-3.43L1,72l-1,1l2,4l3,3l2.36,4.72L15,86.63L19.17,87.98z M43.5,71
		C36.6,71,31,65.4,31,58.5S36.6,46,43.5,46S56,51.6,56,58.5S50.4,71,43.5,71z"/>
	<linearGradient id="SVGID_4_" gradientUnits="userSpaceOnUse" x1="2.3182" y1="32.3231" x2="188.1138" y2="73.5932">
		<stop  offset="0.0364" style="stop-color:#B7D54D"/>
		<stop  offset="0.0499" style="stop-color:#B1D14D"/>
		<stop  offset="0.1009" style="stop-color:#9EC64D"/>
		<stop  offset="0.1535" style="stop-color:#93BF4D"/>
		<stop  offset="0.2102" style="stop-color:#8FBD4D"/>
		<stop  offset="0.2823" style="stop-color:#81BA52"/>
		<stop  offset="0.4534" style="stop-color:#67B45C"/>
		<stop  offset="0.6284" style="stop-color:#54B063"/>
		<stop  offset="0.8082" style="stop-color:#49AE67"/>
		<stop  offset="1" style="stop-color:#45AD68"/>
	</linearGradient>
	<path class="st4" d="M19.17,87.98l11.01-2.08l8.93,1.58L50,88.63l5.4,1.7l8.35-1.77L72,83.63l4.73-6.93L77,66.63l1.85-7.32
		l6.52-6.75L89,49.63l-1-8v-9l3.01-9.93L94,19.63l1-9l-1-9l-1.48-1.18L87,1L74,0l-6,6l-5,2l-12,3l-4,3l-9,9L16,40L7,50
		c0,0-5,11-5,12l-1.07,4.93l0.05,3.51c0.39-0.01,0.84,0.05,1.3,0.22c3.86,1.44,8.22,2.65,12.85,3.51c2.47,0.46,4.72,0.87,7.02,1.54
		c2.38,0.69,4.58,1.08,7.19,1.34c4.87,0.49,9.53,0.97,14.36,1.87c4.66,0.87,1.7-1.38,5.92-0.09c1.7,0.52,7.49,4.59,5.79,4.08
		c-7.92-3.21-12.77-2.95-13.65-1.78c-3.46-0.47-5.03-3.33-7.06-2.47c-2.46-0.28-4.92-0.43-7.38-0.74c-2.55-0.32-4.63-0.87-6.93-1.52
		c-2.27-0.64-4.7-1-7.1-1.47c-4.39-0.87-8.58-2.06-12.3-3.43L1,72l-1,1l2,4l3,3l2.36,4.72L15,86.63L19.17,87.98z M43.5,71
		C36.6,71,31,65.4,31,58.5S36.6,46,43.5,46S56,51.6,56,58.5S50.4,71,43.5,71z"/>
</g>
<g id="Layer_2_1_">
	<ellipse class="st5" cx="40.56" cy="59.63" rx="1.2" ry="1.13"/>
</g>
</svg>
